HIERARCHY
ROOT pelvis
{
  OFFSET 0 0 0
  CHANNELS 6 Xposition Yposition Zposition Zrotation Xrotation Yrotation
  JOINT pelvis_right_femur
  {
    OFFSET -11.43119 -3.542788 0.2090856
    CHANNELS 3 Zrotation Xrotation Yrotation
    JOINT right_femur_tibia
    {
      OFFSET -1.028693 -40.73281 5
      CHANNELS 3 Zrotation Xrotation Yrotation
      JOINT right_tibia_foot
      {
        OFFSET -0.5013517 -42.05707 -5
        CHANNELS 3 Zrotation Xrotation Yrotation
        End Site
        {
          OFFSET 0 -5 10
        }
      }
    }
  }
  JOINT pelvis_left_femur
  {
    OFFSET 11.43119 -3.542788 0.2090856
    CHANNELS 3 Zrotation Xrotation Yrotation
    JOINT left_femur_tibia
    {
      OFFSET 1.028693 -40.73281 5
      CHANNELS 3 Zrotation Xrotation Yrotation
      JOINT left_tibia_foot
      {
        OFFSET 0.3200228 -42.98253 -5
        CHANNELS 3 Zrotation Xrotation Yrotation
        End Site
        {
          OFFSET 0 -5 10
        }
      }
    }
  }
  JOINT pelvis_spine1
  {
    OFFSET 0 8.64413 -3.209807
    CHANNELS 3 Zrotation Xrotation Yrotation
    JOINT spine1
    {
      OFFSET 0 29.53957 -1.762685
      CHANNELS 3 Zrotation Xrotation Yrotation
      JOINT spine2
      {
        OFFSET 0 16.36153 -0.1422377
        CHANNELS 3 Zrotation Xrotation Yrotation
        JOINT neck
        {
          OFFSET 0 11.60093 5
          CHANNELS 3 Zrotation Xrotation Yrotation
          End Site
          {
            OFFSET 0 20 0
          }
        }
      }
      JOINT right_manubrium
      {
        OFFSET -4.671311 15.89868 4
        CHANNELS 3 Zrotation Xrotation Yrotation
        JOINT right_clavicle
        {
          OFFSET -13.601 1.573642 -2.74176
          CHANNELS 3 Zrotation Xrotation Yrotation
          JOINT right_humerus
          {
            OFFSET -0.06331682 -27.72702 2.252146
            CHANNELS 3 Zrotation Xrotation Yrotation
            JOINT right_radius
            {
              OFFSET -0.5696302 -23.92083 0.4042105
              CHANNELS 3 Zrotation Xrotation Yrotation
              End Site
              {
                OFFSET 0 -15 0
              }
            }
          }
        }
      }
      JOINT left_manubrium
      {
        OFFSET 4.671311 15.89868 4
        CHANNELS 3 Zrotation Xrotation Yrotation
        JOINT left_clavicle
        {
          OFFSET 13.601 1.573642 -2.74176
          CHANNELS 3 Zrotation Xrotation Yrotation
          JOINT left_humerus
          {
            OFFSET 0.000209614 -29.01858 1.101395
            CHANNELS 3 Zrotation Xrotation Yrotation
            JOINT left_radius
            {
              OFFSET -0.2288314 -24.59216 1.790347
              CHANNELS 3 Zrotation Xrotation Yrotation
              End Site
              {
                OFFSET 0 -15 0
              }
            }
          }
        }
      }
    }
  }
}
MOTION
Frames: 18
Frame Time: 0.0416666666667
0.07606143 48.05831 -0.0387531 -2.716231 -22.58415 -0.916146 -48.51817 -60.13775 -36.92124 -180 81.39928 -180 10.99571 2.473858 2.514366 63.1835 -48.24825 50.18741 -180 71.97014 -180 -7.157275 -7.698717 -12.73594 -1.695628 16.76063 1.074122 9.894751 14.82807 -10.23883 -8.360989 7.596033 8.070586 8.044204 -26.52134 5.007411 19.14013 -9.148735 27.02242 -59.61126 -37.69095 17.83139 0 -67.13507 0 10.24578 -18.91054 -5.451836 -26.46251 -30.20553 -4.646208 52.86639 -23.59583 -31.2213 0 -77.46387 0 -12.89633 -9.085691 12.73502
0.04637477 48.03379 -0.0443686 -2.632528 -22.66928 -1.244988 -48.35355 -60.3701 -36.68802 -180 81.378 -180 10.96118 2.534785 2.596515 63.11117 -47.90242 50.1407 -180 71.96273 -180 -7.164744 -7.721176 -12.69869 -1.777265 16.98964 0.5725658 9.981928 14.82747 -10.41335 -8.906152 7.353641 8.309911 7.925285 -26.73053 5.141074 19.28089 -9.199098 26.3251 -59.7984 -37.09701 17.27564 0 -68.97514 0 9.365381 -19.68648 -5.662306 -26.53935 -30.26692 -4.545041 52.97576 -23.56415 -31.55852 0 -78.60152 0 -13.44472 -8.279844 10.57821
0.02424239 48.03637 -0.05957028 -2.550544 -22.73333 -1.570722 -48.21639 -60.56442 -36.51263 -180 81.39795 -180 10.92383 2.600008 2.6893 63.06462 -47.51283 50.16202 -180 71.99292 -180 -7.167334 -7.735364 -12.70254 -1.861691 17.2285 0.09525333 10.05266 14.78381 -10.53472 -9.354604 7.187101 8.422913 7.895399 -26.88474 5.101634 19.36075 -9.350978 25.83594 -60.03059 -36.50123 16.69889 0 -70.70418 0 8.60575 -20.46618 -5.749744 -26.59367 -30.31664 -4.55451 53.08742 -23.50704 -31.91263 0 -79.57234 0 -14.16748 -7.399033 8.162055
-0.00887317 48.05373 -0.05577581 -2.476751 -22.77439 -1.816143 -48.15567 -60.67407 -36.44839 -180 81.41369 -180 10.88948 2.65263 2.790188 63.06891 -47.14312 50.23822 -180 72.03356 -180 -7.159691 -7.739574 -12.75096 -1.926681 17.47834 -0.2931405 10.09287 14.6893 -10.62481 -9.693977 7.117608 8.265796 7.963143 -26.97301 4.690689 19.38816 -9.574692 25.36847 -60.40829 -35.66495 15.97691 0 -71.95704 0 7.978016 -21.17207 -5.780795 -26.74184 -30.59962 -4.602959 53.20893 -23.50393 -32.06952 0 -80.26046 0 -14.99725 -6.368657 5.494535
-0.05409024 48.06632 -0.04546665 -2.422819 -22.8261 -1.939935 -48.17507 -60.6779 -36.49571 -180 81.40841 -180 10.86336 2.684459 2.881312 63.09396 -46.85327 50.30685 -180 72.08549 -180 -7.139578 -7.737091 -12.82217 -1.968835 17.70809 -0.5997798 10.12204 14.57966 -10.76221 -9.957835 7.213729 7.746359 8.065604 -26.93689 3.77941 19.40487 -9.897727 24.85907 -60.90351 -34.64578 15.13091 0 -72.74663 0 7.481812 -21.80232 -5.758663 -26.94803 -31.15832 -4.570218 53.43712 -23.48784 -31.93856 0 -80.48029 0 -15.84141 -5.073416 2.633401
-0.09190884 48.06925 -0.03187673 -2.401443 -22.89425 -1.954398 -48.20236 -60.58948 -36.57451 -180 81.39917 -180 10.84718 2.692856 2.952829 63.10251 -46.68412 50.32164 -180 72.11969 -180 -7.111895 -7.738344 -12.89193 -1.973378 17.92524 -0.8445565 10.18682 14.54042 -10.91969 -10.19861 7.460135 6.844441 8.142066 -26.81539 2.341005 19.5066 -10.44745 24.34015 -61.54506 -33.43555 13.98503 0 -72.76788 0 7.031865 -22.29172 -5.743719 -27.0337 -31.78578 -4.262491 53.8112 -23.32638 -31.68625 0 -80.19486 0 -16.65759 -3.459479 -0.3551387
-0.1028685 48.08876 -0.02582793 -2.433444 -22.96072 -1.900891 -48.14212 -60.42186 -36.58688 -180 81.43892 -180 10.83707 2.686883 3.000251 63.07092 -46.64804 50.26107 -180 72.14544 -180 -7.082808 -7.742503 -12.92062 -1.848926 18.15251 -1.079058 10.26558 14.62142 -11.09041 -10.4686 7.791923 5.627421 8.164284 -26.63407 0.4500074 19.6492 -11.24049 23.89717 -62.30518 -32.09649 12.59485 0 -71.99753 0 6.583861 -22.65574 -5.750473 -26.93055 -32.35475 -3.691666 54.37163 -22.95322 -31.42371 0 -79.21691 0 -17.42164 -1.522778 -3.379531
0.01281677 48.19788 -0.02557009 -2.611832 -22.99724 -1.788644 -47.94349 -60.10842 -36.46079 -180 81.60076 -180 10.82869 2.687502 2.998529 62.96167 -46.7443 50.13037 -180 72.18219 -180 -7.05539 -7.753683 -12.90029 -1.434485 18.37741 -1.363142 10.40213 14.83512 -11.31861 -10.77377 8.186804 4.282512 8.181253 -26.36398 -1.669287 19.77684 -12.35578 23.53388 -63.26498 -30.67317 10.92514 0 -70.5364 0 6.119783 -22.93659 -5.770263 -26.69821 -32.75061 -2.991244 55.04008 -22.40188 -31.31108 0 -77.67722 0 -18.08618 0.6157387 -6.369251
0.05351662 48.23553 -0.0577346 -2.593331 -22.95459 -1.676752 -47.93424 -60.05303 -36.39525 -180 81.67793 -180 10.83355 2.670396 2.943241 62.81602 -46.89541 50.08039 -180 72.23017 -180 -7.041123 -7.743977 -12.86304 -1.284682 18.62237 -1.386473 10.48276 14.983 -11.46014 -11.12288 8.583644 2.969538 8.232454 -25.9579 -3.832173 19.81482 -13.8055 23.22509 -64.4214 -29.16185 9.018004 0 -68.3365 0 5.625339 -23.12685 -5.811962 -26.21503 -32.99597 -2.245467 55.77646 -21.79406 -31.35418 0 -75.8551 0 -18.63414 2.782241 -9.246835
0.08572323 48.22078 -0.08888693 -2.418884 -22.82692 -1.548278 -48.21368 -60.22692 -36.44683 -180 81.66173 -180 10.84506 2.639617 2.845345 62.70102 -47.07701 50.20977 -180 72.27327 -180 -7.045926 -7.715652 -12.83166 -1.332356 18.8833 -1.196341 10.51561 15.04866 -11.54096 -11.41134 8.96659 1.865086 8.45253 -25.52954 -5.762798 19.67824 -15.57792 22.93042 -65.75189 -27.596 6.955305 0 -65.45583 0 5.116332 -23.23199 -5.878531 -25.63542 -33.14634 -1.569644 56.49355 -21.14377 -31.45928 0 -73.90046 0 -19.06526 4.795991 -11.93634
0.009463145 48.13077 -0.1236011 -2.057175 -22.60331 -1.422619 -48.75898 -60.63337 -36.66744 -180 81.50416 -180 10.8735 2.582608 2.712487 62.67904 -47.23354 50.51683 -180 72.2998 -180 -7.058035 -7.666783 -12.8332 -1.680497 19.16687 -0.7537896 10.39259 15.02707 -11.49864 -11.66979 9.309164 0.9057521 8.753735 -25.07622 -7.527205 19.41406 -17.56778 22.71301 -67.14423 -26.00368 4.865506 0 -61.83073 0 4.61661 -23.19814 -5.976523 -24.9978 -33.25772 -0.9353127 57.14943 -20.48148 -31.52982 0 -72.23703 0 -19.36545 6.467458 -14.4299
0.001144639 48.12442 -0.1114513 -1.8311 -22.35916 -1.216184 -49.25017 -60.85432 -36.89197 -180 81.39849 -180 10.89697 2.531085 2.590802 62.67446 -47.43358 50.81939 -180 72.31752 -180 -7.069026 -7.62729 -12.83896 -1.736033 19.39563 -0.3384236 10.07937 15.0376 -11.34968 -11.93708 9.748747 0.0769354 9.078759 -24.65077 -9.134502 19.08455 -19.67468 22.62852 -68.53594 -24.36257 2.821377 0 -57.37873 0 4.166354 -22.96853 -6.108288 -24.66051 -33.54818 -0.4395233 57.50346 -20.00516 -31.43636 0 -71.69712 0 -19.44555 7.549985 -16.8017
0.002413002 48.11056 -0.0642956 -1.662435 -22.11366 -1.013489 -49.76542 -61.02117 -37.21212 -180 81.29908 -180 10.91545 2.48252 2.511646 62.72855 -47.64181 51.13067 -180 72.32786 -180 -7.086048 -7.606552 -12.82996 -1.601394 19.61382 0.01328996 9.551636 15.00786 -11.08384 -12.30849 10.26608 -0.6532188 9.344633 -24.33602 -10.64444 18.73857 -21.80784 22.81488 -69.82275 -22.79761 0.9397643 0 -52.24997 0 3.813961 -22.52003 -6.256677 -24.52224 -34.04511 -0.1485231 57.59127 -19.8148 -31.19275 0 -72.11786 0 -19.38088 8.257488 -18.95985
0.01816033 48.10446 -0.01049463 -1.551282 -21.83041 -0.9056631 -50.31079 -61.19949 -37.63408 -180 81.21114 -180 10.92362 2.444549 2.498808 62.8389 -47.83106 51.43978 -180 72.30937 -180 -7.11108 -7.607111 -12.80047 -1.300611 19.89746 0.2513409 8.883798 15.01431 -10.79084 -12.80923 10.66739 -1.25882 9.521987 -24.19648 -12.00798 18.42035 -23.92217 23.39635 -70.9732 -21.44956 -0.7395788 0 -46.77759 0 3.578496 -21.90539 -6.383884 -24.49987 -34.36032 -0.1299472 57.48429 -19.69388 -31.12216 0 -72.80683 0 -19.26502 8.79229 -20.91327
0.02877608 48.11562 0.03384059 -1.446495 -21.50561 -0.8720359 -50.94369 -61.38592 -38.21914 -180 81.17008 -180 10.9211 2.417684 2.551852 62.94048 -48.02358 51.71589 -180 72.30459 -180 -7.144448 -7.624232 -12.72853 -0.8897667 20.21995 0.4129969 8.162686 15.00034 -10.45717 -13.41836 10.95199 -1.769355 9.577758 -24.19938 -13.23717 18.17518 -25.96001 24.24985 -71.98361 -20.27086 -2.236046 0 -41.24184 0 3.451308 -21.17855 -6.467755 -24.46183 -34.56445 -0.2578652 57.31822 -19.62926 -31.12312 0 -73.72214 0 -19.08162 9.226962 -22.65988
0.02880446 48.14037 0.07964443 -1.363905 -21.14929 -0.8809505 -51.68613 -61.53539 -39.00578 -180 81.15693 -180 10.90945 2.405592 2.680175 63.03404 -48.25442 51.94455 -180 72.31337 -180 -7.183289 -7.652933 -12.60638 -0.4563619 20.54828 0.5576516 7.461189 14.98086 -10.09963 -13.99881 11.14696 -2.209942 9.596639 -24.32421 -14.30862 18.05373 -27.88283 25.14703 -72.83939 -19.21667 -3.57905 0 -36.025 0 3.379197 -20.43897 -6.474341 -24.4304 -34.76698 -0.3073781 57.18677 -19.48796 -31.0145 0 -74.65882 0 -18.83535 9.575473 -24.19706
0.01133984 48.18488 0.1315815 -1.309783 -20.77883 -0.8855758 -52.49817 -61.59158 -39.97125 -180 81.1706 -180 10.89625 2.402341 2.867867 63.12318 -48.5052 52.12513 -180 72.35484 -180 -7.219403 -7.690801 -12.45823 0.0156452 20.87185 0.7385131 6.848708 14.95559 -9.749911 -14.52718 11.26719 -2.554826 9.598258 -24.52375 -15.18608 18.04019 -29.66348 25.97371 -73.58059 -18.22817 -4.809125 0 -31.31772 0 3.328481 -19.73123 -6.399381 -24.43867 -34.94709 -0.3130051 57.07409 -19.30284 -30.86518 0 -75.59456 0 -18.56656 9.847601 -25.5528
0.03301076 48.30582 0.2145938 -1.323875 -20.38785 -0.846338 -53.31354 -61.51269 -40.96864 -180 81.20376 -180 10.87567 2.403307 3.085939 63.19536 -48.75128 52.3044 -180 72.40461 -180 -7.258487 -7.737579 -12.31086 0.5987678 21.1645 0.8984189 6.375046 14.95297 -9.483465 -15.00972 11.36889 -2.802787 9.572964 -24.73777 -15.88621 18.11058 -31.28388 26.69147 -74.23948 -17.30725 -5.932722 0 -27.24333 0 3.290255 -19.07923 -6.235252 -24.52127 -35.06707 -0.3335968 56.91184 -19.11538 -30.75533 0 -76.51793 0 -18.30024 10.06642 -26.74956
